<svg version="1.1" id="Layer_1" xmlns="http://www.w3.org/2000/svg" xmlns:xlink="http://www.w3.org/1999/xlink" x="0px" y="0px" viewBox="0 0 265 48" style="enable-background:new 0 0 265 48;" xml:space="preserve">
<path fill="#144734" d="M126.2,30.2c-0.4-0.8-0.6-1.7-0.7-2.6c-0.1-1.6-0.2-3.2-0.2-4.8V2h-8.1c0.2,0,0.4,0.1,0.6,0.2
	c0.6,0.2,1.2,0.6,1.7,1.1c0.6,0.6,0.9,1.3,1.1,2.1c0.2,1.2,0.3,2.5,0.3,3.7v17.6c0,1.2-0.1,2.5-0.3,3.7c-0.2,0.8-0.6,1.5-1.1,2.1
	c-0.5,0.5-1,0.9-1.7,1.1c-0.2,0.1-0.4,0.1-0.6,0.2h15.1c-1.2-0.1-2.3-0.3-3.4-0.8C127.7,32.3,126.8,31.4,126.2,30.2L126.2,30.2z
	 M58.9,2.3C58,2.1,57.2,2,56.4,2h8l0.3,6c-0.2-0.7-0.4-1.4-0.8-2c-0.5-1-1.3-1.8-2.2-2.4C60.8,2.9,59.9,2.5,58.9,2.3L58.9,2.3z
	 M65.2,30.6c-0.9,1.1-2,1.9-3.3,2.4c-1.2,0.4-2.4,0.6-3.6,0.7h8.9l0.3-7.9c-0.2,0.8-0.5,1.6-0.8,2.4C66.3,29.1,65.8,29.9,65.2,30.6
	L65.2,30.6z M49.7,30.2c-0.4-0.8-0.6-1.7-0.7-2.6c-0.1-1.6-0.2-3.2-0.2-4.8V2h-8.1c0.2,0,0.4,0.1,0.6,0.2c0.6,0.2,1.2,0.6,1.7,1.1
	c0.6,0.6,0.9,1.3,1.1,2.1c0.2,1.2,0.3,2.5,0.3,3.7v17.6c0,1.2-0.1,2.5-0.3,3.7c-0.2,0.8-0.6,1.5-1.1,2.1c-0.5,0.5-1,0.9-1.7,1.1
	c-0.2,0.1-0.4,0.1-0.6,0.2h15.1c-1.2-0.1-2.3-0.3-3.4-0.8C51.1,32.3,50.2,31.4,49.7,30.2L49.7,30.2z M56,15.6c-0.5,0.6-1.2,1-2,1.1
	c-0.8,0.2-1.7,0.3-2.5,0.3c0.7,0,1.4,0.1,2.1,0.3c0.8,0.2,1.5,0.6,2,1.2c0.5,0.6,1,1.3,1.3,2c0.2,0.5,0.3,1.1,0.4,1.6l0.1-9.6
	c-0.1,0.4-0.2,0.8-0.3,1.2C56.9,14.4,56.5,15.1,56,15.6L56,15.6z M147.8,10.9c1.2,2.5,1.9,5.3,1.8,8.2c0,2.1-0.3,4.1-1,6.1
	c-0.6,1.8-1.6,3.4-2.9,4.7c-1.7,1.8-4,2.9-6.5,3.3c-1.6,0.3-3.2,0.4-4.8,0.5c1-0.1,1.9-0.4,2.8-0.8c1.6-0.7,2.9-1.9,3.9-3.2
	c1.1-1.5,2-3.1,2.6-4.9c0.6-1.9,0.9-3.9,0.9-5.9c0-2.2-0.3-4.4-1.1-6.6c-0.7-2-1.7-3.8-3-5.5c-1.7-2.1-4-3.6-6.6-4.3
	c-1.2-0.3-2.3-0.5-3.5-0.5c1.9,0,3.2,0,3.8,0.1c3,0.2,5.9,1.1,8.4,2.8C144.9,6.4,146.6,8.5,147.8,10.9z M173,32.9
	c1.1,0.5,2.2,0.7,3.4,0.8h-15.1c0.9-0.2,1.6-0.6,2.3-1.3c0.6-0.6,0.9-1.3,1.1-2.1c0.2-1.2,0.3-2.5,0.3-3.7V9.1
	c0-1.3-0.1-2.6-0.3-3.8c-0.2-0.8-0.6-1.6-1.2-2.2c-0.5-0.4-1-0.8-1.6-1c-0.1,0-0.3-0.1-0.4-0.1h11.8c-0.2,0-0.4,0.1-0.5,0.1
	c-0.6,0.2-1.2,0.5-1.6,1c-0.6,0.6-1.1,1.4-1.2,2.2c-0.2,1.2-0.3,2.5-0.3,3.8v13.7c0,2.1,0.1,3.7,0.2,4.8c0.1,0.9,0.3,1.8,0.7,2.7
	C170.8,31.4,171.8,32.3,173,32.9z M187.3,28c0.3-0.8,0.6-1.7,0.8-2.6l-0.3,8.3h-9c1.2-0.1,2.5-0.3,3.6-0.7c1.3-0.5,2.5-1.3,3.4-2.4
	C186.5,29.7,187,28.9,187.3,28L187.3,28z M209.7,33.3c0.3,0.2,0.7,0.3,1.1,0.4h-11.9c0.2,0,0.4-0.1,0.6-0.2c0.6-0.2,1.2-0.6,1.6-1.1
	c0.6-0.6,1-1.3,1.1-2.1c0.2-1.2,0.3-2.5,0.3-3.7V9.1c0-1.2-0.1-2.5-0.3-3.7c-0.2-0.7-0.5-1.4-1-2c-0.5-0.6-1.1-1-1.8-1.2
	c-0.2-0.1-0.4-0.1-0.6-0.2h11.8c-0.2,0-0.4,0.1-0.6,0.2c-0.6,0.2-1.2,0.6-1.7,1.1c-0.7,0.8-1.2,1.8-1.3,2.9c-0.1,1-0.2,2-0.1,3v17.6
	c0,1.1,0.1,2.1,0.2,3.2c0.1,0.7,0.3,1.4,0.7,2C208.4,32.4,209,33,209.7,33.3L209.7,33.3z M233.7,30.4c0.2,0.7,0.5,1.4,1,2
	c0.5,0.6,1.1,1,1.8,1.3c0.1,0,0.3,0.1,0.4,0.1h-11.4c0.1,0,0.3-0.1,0.4-0.1c0.6-0.2,1.2-0.6,1.7-1.1c0.6-0.6,1-1.3,1.2-2.2
	c0.2-1.2,0.3-2.5,0.3-3.7V9c0-1.1,0-2.2-0.2-3.2c-0.1-0.7-0.3-1.4-0.7-2c-0.4-0.7-1-1.2-1.8-1.6c-0.3-0.1-0.5-0.2-0.8-0.3h7.9v24.8
	C233.3,27.9,233.4,29.1,233.7,30.4L233.7,30.4z M250,10.3c0,2.8-1.1,4.8-3.3,6.1c-1.3,0.7-2.7,1.1-4.2,1.2c-0.5,0-1.9,0.1-3.9,0.1
	h-0.3c0.6,0,1.2-0.1,1.8-0.3c0.9-0.3,1.8-0.7,2.5-1.4c0.8-0.8,1.5-1.7,1.9-2.7c0.4-1,0.6-2.1,0.6-3.3c0-1.3-0.2-2.6-0.7-3.8
	c-0.4-1.1-1.2-2.1-2.1-2.8c-0.9-0.8-2.1-1.3-3.3-1.5c1.6,0,3.2,0.1,4.7,0.4c1.1,0.2,2.2,0.7,3.1,1.5c1,0.8,1.9,1.7,2.4,2.9
	C249.8,7.8,250,9,250,10.3L250,10.3z M20.3,1.9L20.3,1.9L20.3,1.9z M32.4,32.6C32.4,32.4,32.4,33.1,32.4,32.6L32.4,32.6z M32.4,32.6
	c0,7-6.2,15.4-16.5,15.4C7.1,48,0,42.7,0,36.1c0-5.2,4.5-9.7,10.8-11.2c-2.2,0.9-4.1,2.4-5.4,4.3s-2.1,4.2-2.1,6.6
	c0,6.6,5.7,11.9,12.6,11.9c8.7,0,12.5-7.2,12.5-11.4c0-10.7-13.8-14.7-18.3-17.9C9,17.6,8,16.6,7.3,15.5c-0.6-1-1-2-1.2-3.2
	C5.6,10,6.3,7.8,7.3,5.7c0.8-1.6,2.1-3,3.6-4c-0.7,0.8-1.2,1.6-1.5,2.6c-0.3,1-0.4,2-0.3,3c0.2,2.1,1.7,3.9,3.2,5.2
	c1.4,1.2,9.3,5.2,11.5,6.6C25.7,20.3,32.4,24.8,32.4,32.6z M26.6,13.6c-0.5-1.6-0.9-3.1-1.4-4.6c-0.5-1.4-1.9-4.5-3.8-6.3
	c-1.2-1.2-2.8-1.9-4.4-2.1c1.2,0,2.4,0.1,3.5,0.5c1.1,0.3,3.3,1.5,4.4,1.1c0.9-0.3,1.2-1.7,1.4-2.2l0.2,10.5
	C26.6,11.5,26.6,12.6,26.6,13.6z M97.2,2.3C96.3,2.1,95.5,2,94.7,2h8l0.3,6c-0.2-0.7-0.4-1.4-0.8-2c-0.5-1-1.3-1.8-2.2-2.4
	C99.2,2.9,98.2,2.5,97.2,2.3z M103.5,30.6c-0.9,1.1-2,1.9-3.3,2.4c-1.2,0.4-2.4,0.6-3.6,0.7h8.9l0.3-7.9c-0.2,0.8-0.5,1.6-0.8,2.4
	C104.6,29.1,104.1,29.9,103.5,30.6L103.5,30.6z M87.9,30.2c-0.4-0.8-0.6-1.7-0.7-2.6c-0.1-1-0.2-2.6-0.2-4.8V2H79
	c0.2,0,0.4,0.1,0.6,0.2c0.6,0.2,1.2,0.6,1.7,1.1c0.6,0.6,1,1.3,1.1,2.1c0.2,1.2,0.3,2.5,0.3,3.7v17.6c0,1.2-0.1,2.5-0.3,3.7
	c-0.2,0.8-0.6,1.5-1.1,2.1c-0.5,0.5-1,0.9-1.7,1.1c-0.2,0.1-0.4,0.1-0.6,0.2H94c-1.2-0.1-2.3-0.3-3.4-0.8
	C89.4,32.3,88.5,31.4,87.9,30.2L87.9,30.2z M94.3,15.6c-0.5,0.6-1.2,1-2,1.1c-0.8,0.2-1.7,0.3-2.5,0.3c0.7,0,1.4,0.1,2.1,0.3
	c0.8,0.2,1.5,0.6,2,1.2c0.5,0.6,1,1.3,1.2,2c0.2,0.5,0.3,1.1,0.4,1.6l0.1-9.6c-0.1,0.4-0.2,0.8-0.3,1.2
	C95.2,14.4,94.8,15.1,94.3,15.6L94.3,15.6z"></path>
<g>
	<path fill="#144734" d="M257.9,3v0.5h-1v2.7h-0.6V3.6h-1V3H257.9z M261.4,6.3l-0.1-1.9c0-0.3,0-0.6,0-0.9h0c-0.1,0.3-0.2,0.7-0.3,1
		l-0.6,1.8h-0.7l-0.6-1.9c-0.1-0.3-0.2-0.6-0.2-0.9h0c0,0.3,0,0.6,0,0.9l-0.1,1.9h-0.6l0.2-3.3h1l0.6,1.6c0.1,0.3,0.1,0.5,0.2,0.8h0
		c0.1-0.3,0.2-0.6,0.2-0.8l0.6-1.6h0.9l0.3,3.3H261.4z"></path>
</g>
<g>
	<path fill="#144734" d="M41.4,46.1v-6.7h0.9l2.2,3.4c0.5,0.8,0.9,1.5,1.2,2.2l0,0c-0.1-0.9-0.1-1.7-0.1-2.8v-2.8h0.8v6.7h-0.9
		l-2.1-3.4c-0.5-0.8-0.9-1.5-1.3-2.2l0,0c0,0.8,0.1,1.7,0.1,2.8v2.9H41.4z"></path>
	<path fill="#144734" d="M58.2,42.6c0,2.3-1.4,3.5-3.1,3.5c-1.8,0-3-1.4-3-3.4c0-2.1,1.3-3.5,3.1-3.5C57,39.2,58.2,40.6,58.2,42.6z
		 M53,42.8c0,1.4,0.8,2.7,2.1,2.7c1.4,0,2.2-1.3,2.2-2.8c0-1.3-0.7-2.7-2.1-2.7C53.7,39.9,53,41.3,53,42.8z"></path>
	<path fill="#144734" d="M63.9,46.1v-6.7h0.9l2.2,3.4c0.5,0.8,0.9,1.5,1.2,2.2l0,0c-0.1-0.9-0.1-1.7-0.1-2.8v-2.8h0.8v6.7H68l-2.1-3.4
		c-0.5-0.8-0.9-1.5-1.3-2.2l0,0c0.1,0.8,0.1,1.7,0.1,2.8v2.9H63.9z"></path>
	<path fill="#144734" d="M77,43.1v0.6h-2.5v-0.6H77z"></path>
	<path fill="#144734" d="M83.6,44l-0.7,2.1H82l2.3-6.7h1l2.3,6.7h-0.9L86,44H83.6z M85.8,43.3l-0.7-1.9c-0.2-0.4-0.2-0.8-0.4-1.2h0
		c-0.1,0.4-0.2,0.8-0.3,1.2l-0.7,1.9H85.8z"></path>
	<path fill="#144734" d="M93.1,39.3H94v6h2.9v0.7h-3.7V39.3z"></path>
	<path fill="#144734" d="M106.6,45.9c-0.3,0.2-1,0.3-1.8,0.3c-1.9,0-3.3-1.2-3.3-3.4c0-2.1,1.4-3.5,3.5-3.5c0.8,0,1.4,0.2,1.6,0.3
		l-0.2,0.7c-0.3-0.2-0.8-0.3-1.4-0.3c-1.6,0-2.6,1-2.6,2.8c0,1.6,0.9,2.7,2.6,2.7c0.5,0,1.1-0.1,1.4-0.3L106.6,45.9z"></path>
	<path fill="#144734" d="M117.8,42.6c0,2.3-1.4,3.5-3.1,3.5c-1.8,0-3-1.4-3-3.4c0-2.1,1.3-3.5,3.1-3.5
		C116.6,39.2,117.8,40.6,117.8,42.6z M112.5,42.8c0,1.4,0.8,2.7,2.1,2.7c1.4,0,2.2-1.3,2.2-2.8c0-1.3-0.7-2.7-2.1-2.7
		C113.3,39.9,112.5,41.3,112.5,42.8z"></path>
	<path fill="#144734" d="M124.3,39.3v2.8h3.3v-2.8h0.9v6.7h-0.9v-3.2h-3.3v3.2h-0.9v-6.7H124.3z"></path>
	<path fill="#144734" d="M140.2,42.6c0,2.3-1.4,3.5-3.1,3.5c-1.8,0-3-1.4-3-3.4c0-2.1,1.3-3.5,3.1-3.5C139,39.2,140.2,40.6,140.2,42.6z
		 M135,42.8c0,1.4,0.8,2.7,2.1,2.7c1.4,0,2.2-1.3,2.2-2.8c0-1.3-0.7-2.7-2.1-2.7C135.7,39.9,135,41.3,135,42.8z"></path>
	<path fill="#144734" d="M145.8,39.3h0.9v6h2.9v0.7h-3.7V39.3z"></path>
	<path fill="#144734" d="M155.9,39.3v6.7H155v-6.7H155.9z"></path>
	<path fill="#144734" d="M166.6,45.9c-0.3,0.2-1,0.3-1.8,0.3c-1.9,0-3.3-1.2-3.3-3.4c0-2.1,1.4-3.5,3.5-3.5c0.8,0,1.4,0.2,1.6,0.3
		l-0.2,0.7c-0.3-0.2-0.8-0.3-1.4-0.3c-1.6,0-2.6,1-2.6,2.8c0,1.6,0.9,2.7,2.6,2.7c0.5,0,1.1-0.1,1.4-0.3L166.6,45.9z"></path>
	<path fill="#144734" d="M178.7,45c0.4,0.2,1,0.4,1.6,0.4c0.9,0,1.4-0.5,1.4-1.1c0-0.6-0.4-1-1.3-1.3c-1.1-0.4-1.8-1-1.8-1.9
		c0-1,0.9-1.8,2.2-1.8c0.7,0,1.2,0.2,1.5,0.3l-0.2,0.7c-0.2-0.1-0.7-0.3-1.3-0.3c-0.9,0-1.3,0.5-1.3,1c0,0.6,0.4,0.9,1.3,1.3
		c1.1,0.4,1.7,1,1.7,2c0,1-0.8,1.9-2.4,1.9c-0.6,0-1.4-0.2-1.7-0.4L178.7,45z"></path>
	<path fill="#144734" d="M188.3,39.4c0.4-0.1,1-0.1,1.7-0.1c0.9,0,1.5,0.2,1.9,0.6c0.4,0.3,0.6,0.8,0.6,1.4c0,0.6-0.2,1.1-0.5,1.4
		c-0.5,0.5-1.2,0.7-2.1,0.7c-0.3,0-0.5,0-0.7-0.1v2.7h-0.9V39.4z M189.1,42.7c0.2,0,0.4,0.1,0.7,0.1c1,0,1.7-0.5,1.7-1.4
		c0-0.9-0.6-1.3-1.6-1.3c-0.4,0-0.7,0-0.8,0.1V42.7z"></path>
	<path fill="#144734" d="M199,39.3v6.7h-0.9v-6.7H199z"></path>
	<path fill="#144734" d="M205,39.4c0.4-0.1,1.1-0.1,1.7-0.1c0.9,0,1.5,0.2,1.9,0.5c0.3,0.3,0.5,0.8,0.5,1.3c0,0.9-0.6,1.5-1.3,1.7v0
		c0.5,0.2,0.8,0.7,1,1.4c0.2,0.9,0.4,1.6,0.5,1.8h-0.9c-0.1-0.2-0.3-0.8-0.5-1.6c-0.2-0.9-0.6-1.3-1.3-1.3h-0.8v2.9H205V39.4z
		 M205.9,42.5h0.9c0.9,0,1.5-0.5,1.5-1.3c0-0.9-0.6-1.2-1.5-1.3c-0.4,0-0.7,0-0.9,0.1V42.5z"></path>
	<path fill="#144734" d="M215.7,39.3v6.7h-0.9v-6.7H215.7z"></path>
	<path fill="#144734" d="M223,40.1h-2v-0.7h5v0.7h-2.1v6H223V40.1z"></path>
	<path fill="#144734" d="M231,45c0.4,0.2,1,0.4,1.6,0.4c0.9,0,1.4-0.5,1.4-1.1c0-0.6-0.4-1-1.3-1.3c-1.1-0.4-1.8-1-1.8-1.9
		c0-1,0.9-1.8,2.2-1.8c0.7,0,1.2,0.2,1.5,0.3l-0.2,0.7c-0.2-0.1-0.7-0.3-1.3-0.3c-0.9,0-1.3,0.5-1.3,1c0,0.6,0.4,0.9,1.3,1.3
		c1.1,0.4,1.7,1,1.7,2c0,1-0.8,1.9-2.4,1.9c-0.6,0-1.4-0.2-1.7-0.4L231,45z"></path>
</g>
</svg>